# xmcd
#
# Track frame offsets: 
#        150
#        16408
#        35358
#        52885
#        66255
#        84842
#        97720
#        113927
#        132454
#        150724
#        166427
#
# Disc length: 2507 seconds
#
# Revision: 0
# Processed by: cddbd v1.5.2PL0 Copyright (c) Steve Scherf et al.
# Submitted via: ExactAudioCopy v0.95b4
#
DISCID=8109c90b
DTITLE=Sugarland - Twice The Speed Of Life
DYEAR=2004
DGENRE=Country
TTITLE0=Something More
TTITLE1=Baby Girl
TTITLE2=Hello
TTITLE3=Tennessee
TTITLE4=Just Might (Make Me Believe)
TTITLE5=Down In Mississippi (Up To No Good)
TTITLE6=Fly Away
TTITLE7=Speed Of Life
TTITLE8=Small Town Jericho
TTITLE9=Time Time Time
TTITLE10=Stand Back Up
EXTD=
EXTT0=
EXTT1=
EXTT2=
EXTT3=
EXTT4=
EXTT5=
EXTT6=
EXTT7=
EXTT8=
EXTT9=
EXTT10=
PLAYORDER=
